<svg width="24" height="24" viewBox="0 0 24 24" fill="none" stroke="currentColor" stroke-width="1.2" stroke-linecap="round" stroke-linejoin="round" xmlns="http://www.w3.org/2000/svg">
<path d="M4.25 7.5a1 1 0 010-4.5H9c1.5 0 2.25 0 2.75.5s.5 1.25.5 2.75V7.5ZM19 12.5C19 10.25 19 9 18.25 8.25 17.5 7.5 16.25 7.5 13.5 7.5H4.25a2.25 2.25 0 01-2.25-2.25V14.5C2 17.25 2 18.5 2.75 19.25S5 20 7.5 20H14.5"></path>
<path d="M4.5 11h7.5m-7.5 2.5h4.5m-4.5 2.5h4.5" stroke-width="1"></path>
<circle cx="17.5" cy="16.5" r="4.5"></circle>
<path d="M22 16.5a4.5 4.5 90 00-5.75 4.25M13.25 16.5a4.5 4.5 90 005.75-4.25" stroke-width=".75"></path>
</svg>