<svg width="24" height="24" viewBox="0 0 24 24" fill="none" stroke="currentColor" stroke-width="1.2" stroke-linecap="round" stroke-linejoin="round" xmlns="http://www.w3.org/2000/svg">
<path d="M12.75 9.5V6.25a3.25 3.25 0 00-3.25-3.25H5.5a3.25 3.25 0 00-3.25 3.25v5.75a3.25 3.25 0 003.25 3.25H9.5a3.25 3.25 0 001.5-.25"></path>
<rect x="11" y="9.25" width="10.5" height="12.25" rx="3.25"></rect>
<path d="M7.4 5.4 9.6 10.3 8.2 10.2M10 6 4.8 6.7M9.9 12.2H6.6A1.7 1.7 0 014.9 10.5M10.2 7.9l-5.2.7" stroke-width="1"></path>
<path d="M3.5 16.5a2.5 2.5 0 002.5 2.5h1.5m-.5-1.75 1.25 1.75-1.25 1.75M19.75 6.5a2.5 2.5 0 00-2.5-2.5h-1.5m.5 1.75-1.25-1.75 1.25-1.75" stroke-width="1"></path>
<path d="M14.25 18.25v-4.25a1 1 0 014.25 0v4.25m-4.25-2.5h4.25" stroke-width="1"></path>
</svg>