<svg width="120" height="120" viewBox="0 0 120 120" fill="none" xmlns="http://www.w3.org/2000/svg">
<rect width="120" height="120" fill="#C9C1FF"/>
<path d="M60 103C83.7482 103 103 83.7483 103 60C103 36.2518 83.7482 17 60 17C36.2517 17 17 36.2518 17 60C17 83.7483 36.2517 103 60 103Z" fill="white"/>
<path d="M100.5 60C100.5 37.6325 82.3675 19.5 60 19.5C37.6325 19.5 19.5 37.6325 19.5 60C19.5 82.3675 37.6325 100.5 60 100.5C82.3675 100.5 100.5 82.3675 100.5 60ZM105.5 60C105.5 85.129 85.129 105.5 60 105.5C34.871 105.5 14.5 85.129 14.5 60C14.5 34.8711 34.871 14.5 60 14.5C85.1289 14.5 105.5 34.8711 105.5 60Z" fill="#18181A"/>
<path d="M90.9799 60C90.9799 68.2164 87.716 76.0963 81.9061 81.9062C76.0962 87.716 68.2164 90.98 60 90.98C57.9986 90.9843 56.0016 90.792 54.0378 90.4061C47.5386 89.1282 41.6195 85.8023 37.148 80.9157C32.6764 76.0292 29.8876 69.8389 29.19 63.2521C29.0745 62.1719 29.0177 61.0863 29.02 60C29.0252 51.9712 32.1471 44.258 37.7279 38.4859C43.3087 32.7139 50.9124 29.3339 58.9365 29.0583C66.9606 28.7827 74.7783 31.633 80.742 37.0085C86.7056 42.384 90.3495 49.8649 90.9055 57.8744C90.9587 58.5546 90.9799 59.2667 90.9799 60Z" fill="#C9C1FF"/>
<path d="M88.4798 60.0002C88.4798 59.3131 88.4602 58.6685 88.4134 58.0695L88.4114 58.0481C87.9003 50.6849 84.5501 43.8072 79.0677 38.8654C73.5853 33.9239 66.3982 31.3035 59.0218 31.5568C51.6454 31.8103 44.6551 34.9177 39.5247 40.2238C34.3944 45.5301 31.5246 52.6214 31.5198 60.0022V60.0051C31.5183 60.7521 31.5475 61.4989 31.6068 62.2434L31.6761 62.9865V62.9895C32.3175 69.0449 34.8817 74.7354 38.9925 79.2277C43.1034 83.7202 48.5448 86.7785 54.5198 87.9533L55.1976 88.0774C56.7817 88.3485 58.3865 88.4841 59.9944 88.4807H60.0003C67.5534 88.4806 74.7971 85.4797 80.138 80.1389C85.479 74.7978 88.4798 67.5536 88.4798 60.0002ZM93.4798 60.0002C93.4798 68.8795 89.9527 77.3953 83.6741 83.674C77.3964 89.9517 68.8821 93.4786 60.0042 93.4797L60.0052 93.4807L60.0023 93.4797L60.0003 93.4807V93.4797C57.8371 93.484 55.6786 93.2767 53.556 92.8596H53.555C46.5319 91.4786 40.136 87.8841 35.304 82.6037C30.472 77.3232 27.4573 70.6338 26.7034 63.5158L26.7044 63.5149C26.5795 62.3459 26.5175 61.171 26.5198 59.9953C26.5263 51.3198 29.9006 42.9853 35.931 36.7483C41.9621 30.5106 50.1794 26.8576 58.8509 26.5598C67.5223 26.262 75.9705 29.3425 82.4153 35.1516C88.8603 40.9609 92.7988 49.0455 93.3997 57.7014H93.3988C93.457 58.4559 93.4798 59.228 93.4798 60.0002Z" fill="#18181A"/>
<path d="M32.9949 42.0264C41.0787 42.0264 46.0217 45.4338 50.4783 48.4297C54.8798 51.3886 58.8453 53.9824 65.5476 53.9824C70.5928 53.9824 73.9227 53.0468 76.8123 51.8525C78.312 51.2327 79.6721 50.5535 81.2136 49.8213C82.725 49.1034 84.3514 48.3653 86.2039 47.7383L87.8064 52.4736C86.2368 53.005 84.8221 53.643 83.3591 54.3379C81.9264 55.0184 80.3789 55.789 78.7224 56.4736C75.299 57.8885 71.3215 58.9824 65.5476 58.9824C57.233 58.9824 52.1805 55.5983 47.6892 52.5791C43.2531 49.597 39.4283 47.0264 32.9949 47.0264V42.0264Z" fill="#18181A"/>
<path d="M34.567 61.0186C42.6449 61.0214 47.5883 64.4261 52.0446 67.4209C56.448 70.3802 60.4131 72.9736 67.11 72.9736C72.155 72.9736 75.4865 72.0381 78.3805 70.8486C79.8841 70.2306 81.2437 69.5573 82.7906 68.8311C84.306 68.1196 85.9358 67.3899 87.7936 66.7764L89.3619 71.5244C87.7925 72.0427 86.3776 72.6701 84.9156 73.3564C83.4854 74.0279 81.9348 74.7938 80.2809 75.4736C76.8593 76.88 72.8839 77.9736 67.11 77.9736C58.8005 77.9736 53.7474 74.5901 49.2555 71.5713C44.8182 68.5892 40.9908 66.0176 34.5573 66.0176H34.5455C32.9655 66.0103 31.3885 66.1591 29.8375 66.4609L28.8824 61.5527C30.7519 61.189 32.6527 61.0105 34.5573 61.0186V61.0176C34.5586 61.0176 34.5599 61.0186 34.5612 61.0186C34.5634 61.0186 34.5657 61.0176 34.568 61.0176L34.567 61.0186Z" fill="#18181A"/>
</svg>
