<svg xmlns="http://www.w3.org/2000/svg" width="20" height="20" fill="none">
  <path fill="#EDC4AA" d="M0 0h20v20H0z"/>
  <path fill="#fff" stroke="#18181A" stroke-width=".83" d="m3.826 5.861 4.08.928c.138.035.281.063.424.085.107.01.217.01.434.01h3.174c1.81 0 2.715 0 3.277.557.562.557.556 1.467.556 3.277v1.088c0 1.81 0 2.715-.556 3.277-.556.562-1.467.556-3.277.556H7.664c-1.81 0-2.715 0-3.277-.556-.561-.556-.556-1.467-.556-3.277l-.005-5.945Z"/>
  <path stroke="#18181A" stroke-linecap="round" stroke-linejoin="round" stroke-width=".67" d="M5.546 9.25H10.9M5.546 11.136h3.038M5.546 13.015h3.038"/>
  <path fill="#fff" stroke="#18181A" stroke-width=".83" d="M3.826 5.266a1.619 1.619 0 0 1 1.628-1.63H8.7c1.13 0 1.697 0 2.04.35.343.351.352.919.352 2.04v.86h-5.64a1.63 1.63 0 0 1-1.627-1.62Z"/>
  <path fill="#EDC4AA" stroke="#18181A" stroke-width=".83" d="M17.867 13.503a3.152 3.152 0 1 1-6.283-.545c.035-.413.152-.815.345-1.181a3.133 3.133 0 0 1 1.854-1.55 3.107 3.107 0 0 1 1.224-.134 3.153 3.153 0 0 1 2.86 3.41Z"/>
  <path stroke="#18181A" stroke-width=".6" d="M17.878 13.29a3.153 3.153 0 0 0-2.91.605 3.152 3.152 0 0 0-1.112 2.141c.005.074.005.148 0 .221a3.153 3.153 0 0 0 4.018-2.754c-.002-.074.002-.146.004-.213ZM15.71 10.27a3.153 3.153 0 0 0-4.016 2.753c0 .075-.012.147-.013.22a3.152 3.152 0 0 0 4.018-2.753c-.002-.074.011-.148.011-.22Z"/>
</svg>
