<svg xmlns="http://www.w3.org/2000/svg" width="20" height="20" fill="none">
  <path fill="#D6E3E8" d="M0 0h20v20H0z"/>
  <g clip-path="url(#a)">
    <path fill="#D6E3E8" stroke="#18181A" stroke-width=".833" d="M12.285 3.486H5.428a1.681 1.681 0 0 0-1.68 1.682v8.647a1.681 1.681 0 0 0 1.68 1.681h6.857a1.681 1.681 0 0 0 1.681-1.681V5.168a1.681 1.681 0 0 0-1.68-1.682Z"/>
    <path fill="#fff" stroke="#18181A" stroke-width=".833" d="M14.553 4.94H7.696a1.681 1.681 0 0 0-1.674 1.674v8.212a1.681 1.681 0 0 0 1.681 1.68h6.857a1.681 1.681 0 0 0 1.681-1.68V6.614a1.681 1.681 0 0 0-1.688-1.675Z"/>
    <path stroke="#18181A" stroke-linecap="round" stroke-linejoin="round" stroke-width=".667" d="M9.99 8.32h4.338M9.99 10.727h4.338M9.99 13.134h4.338"/>
    <path fill="#18181A" d="M8.396 8.914a.594.594 0 1 0 0-1.188.594.594 0 0 0 0 1.188ZM8.396 11.322a.594.594 0 1 0 0-1.19.594.594 0 0 0 0 1.19ZM8.396 13.725a.591.591 0 1 0 0-1.183.591.591 0 0 0 0 1.183Z"/>
  </g>
  <defs>
    <clipPath id="a">
      <path fill="#fff" d="M3.333 3.084h13.315v13.833H3.333z"/>
    </clipPath>
  </defs>
</svg>
