<svg xmlns="http://www.w3.org/2000/svg" width="20" height="20" fill="none">
  <path fill="#74BD44" d="M0 0h20v20H0z"/>
  <g stroke="#18181A" clip-path="url(#a)">
    <path stroke-linecap="round" stroke-linejoin="round" stroke-width=".67" d="M3.86 13.28a1.82 1.82 0 0 0 1.81 1.82H6.8M7.33 15.1l-.97-1.22M7.33 15.1l-.97 1.22M15.71 6.07a1.82 1.82 0 0 0-1.82-1.82h-1.12M12.24 4.25l.97 1.22M12.24 4.25l.97-1.23"/>
    <path fill="#74BD44" fill-rule="evenodd" stroke-width=".83" d="M17.07 10.32v4.14a2.3 2.3 0 0 1-2.29 2.3h-3.06a2.3 2.3 0 0 1-2.3-2.3v-4.14a2.3 2.3 0 0 1 2.3-2.3h3.06a2.3 2.3 0 0 1 2.3 2.3Z" clip-rule="evenodd"/>
    <path stroke-linecap="round" stroke-linejoin="round" stroke-width=".67" d="M11.72 14.5v-3.16a1.53 1.53 0 1 1 3.07 0v3.17M11.72 12.73h3.07"/>
    <path fill="#fff" fill-rule="evenodd" stroke-linejoin="round" stroke-width=".83" d="M10.56 5.71v4.15a2.3 2.3 0 0 1-2.3 2.3H5.22a2.3 2.3 0 0 1-2.29-2.3V5.71a2.3 2.3 0 0 1 2.3-2.29h3.04a2.3 2.3 0 0 1 2.3 2.3Z" clip-rule="evenodd"/>
    <path stroke-linecap="round" stroke-linejoin="round" stroke-width=".67" d="m6.69 5.2 1.54 3.53-.96-.04M8.54 5.64l-3.79.5M8.44 10.15H6.11a1.26 1.26 0 0 1-1.26-1.26M8.73 7.04l-3.78.5"/>
  </g>
  <defs>
    <clipPath id="a">
      <path fill="#fff" d="M2.5 2.5h15v15h-15z"/>
    </clipPath>
  </defs>
</svg>
